<?xml version="1.0" encoding="utf-8"?>
<!-- Generator: Adobe Illustrator 19.1.0, SVG Export Plug-In . SVG Version: 6.00 Build 0)  -->
<svg version="1.1" id="Layer_1" xmlns="http://www.w3.org/2000/svg" xmlns:xlink="http://www.w3.org/1999/xlink" x="0px" y="0px"
	 viewBox="414 135 1440 524" style="enable-background:new 414 135 1440 524;" xml:space="preserve">
<style type="text/css">
	.st0{fill:none;stroke:#FFFFFF;stroke-width:2.4;stroke-opacity:0.2}
	.st1{fill:#FFFFFF;fill-opacity:0.2}
	.st2{font-family:'Roboto-Light';}
	.st3{font-size:31.3632px;}
	.st5{mask:url(#mask-2);}
	.st6{fill:none;stroke:#FFFFFF;stroke-width:4.356;stroke-opacity:0.2}
	.st13{fill:#FFFFFF;stroke:#FFFFFF;stroke-width:4.356;stroke-opacity:0.2;fill-opacity:0.2}
	.st14{fill:#FFFFFF;fill-opacity:0.2}
</style>
<title>Material Splash</title>
<desc>Homepage Hero Background</desc>
<g id="Page-1">
	<g id="material-splash">
		<g id="fab" transform="translate(454.000000, 362.000000)">
			<circle id="Oval" class="st0" cx="435" cy="158" r="21"/>
			<text transform="matrix(1 0 0 1 426.5107 168.8936)" class="st1 st2 st3">+</text>
		</g>
		<g id="fab_1_" transform="translate(1218.000000, 395.000000)">
			<circle id="Oval_1_" class="st0" cx="435" cy="158" r="21"/>
			<text transform="matrix(1 0 0 1 426.5106 168.8936)" class="st1 st2 st3">+</text>
		</g>
		<g id="fab_2_" transform="translate(1333.000000, 42.000000)">
			<circle id="Oval_2_" class="st0" cx="435" cy="158" r="21"/>
			<text transform="matrix(1 0 0 1 426.5106 168.8936)" class="st1 st2 st3">+</text>
		</g>
		<g id="fab_3_" transform="translate(110.000000, 180.000000)">
			<circle id="Oval_3_" class="st0" cx="435" cy="158" r="21"/>
			<text transform="matrix(1 0 0 1 426.5106 168.8936)" class="st1 st2 st3">+</text>
		</g>
		<defs>
			<filter id="Adobe_OpacityMaskFilter" filterUnits="userSpaceOnUse" x="560.4" y="478.4" width="75.6" height="57.7">
				<feColorMatrix  type="matrix" values="1 0 0 0 0  0 1 0 0 0  0 0 1 0 0  0 0 0 1 0"/>
			</filter>
		</defs>
		<mask maskUnits="userSpaceOnUse" x="560.4" y="478.4" width="75.6" height="57.7" id="mask-2">
			<g class="st4">
				<path id="path-1" class="st1" d="M429.5,135h46c8.6,0,15.5,6.9,15.5,15.5l0,0c0,8.6-6.9,15.5-15.5,15.5h-46
					c-8.6,0-15.5-6.9-15.5-15.5l0,0C414,141.9,420.9,135,429.5,135z"/>
			</g>
		</mask>
		
			<g id="toggle" transform="translate(184.187408, 372.221776) rotate(-29.000000) translate(-184.187408, -372.221776) translate(145.687408, 356.721776)" class="st5">
			<g id="Rectangle">
				<path id="path-1_1_" class="st6" d="M312.1,318.8h46c8.6,0,15.5,6.9,15.5,15.5l0,0c0,8.6-6.9,15.5-15.5,15.5h-46
					c-8.6,0-15.5-6.9-15.5-15.5l0,0C296.6,325.7,303.6,318.8,312.1,318.8z"/>
			</g>
			
				<ellipse id="Oval_4_" transform="matrix(2.326289e-06 1 -1 2.326289e-06 646.1316 20.6129)" class="st1" cx="312.8" cy="333.4" rx="10.9" ry="10.7"/>
		</g>
		<defs>
			<filter id="Adobe_OpacityMaskFilter_1_" filterUnits="userSpaceOnUse" x="470.8" y="206.8" width="79.1" height="49.6">
				<feColorMatrix  type="matrix" values="1 0 0 0 0  0 1 0 0 0  0 0 1 0 0  0 0 0 1 0"/>
			</filter>
		</defs>
		<mask maskUnits="userSpaceOnUse" x="470.8" y="206.8" width="79.1" height="49.6" id="mask-4">
			<g class="st7">
				<path id="path-3" class="st1" d="M429.5,135h46c8.6,0,15.5,6.9,15.5,15.5l0,0c0,8.6-6.9,15.5-15.5,15.5h-46
					c-8.6,0-15.5-6.9-15.5-15.5l0,0C414,141.9,420.9,135,429.5,135z"/>
			</g>
		</mask>
		
			<g id="toggle_1_" transform="translate(96.405439, 96.638530) rotate(18.000000) translate(-96.405439, -96.638530) translate(57.905439, 81.138530)" class="st8">
			<g id="Rectangle_1_">
				<path id="path-3_1_" class="st6" d="M451,0.5l46,0c8.6,0,15.5,6.9,15.5,15.5l0,0c0,8.6-6.9,15.5-15.5,15.5l-46,0
					c-8.6,0-15.5-6.9-15.5-15.5l0,0C435.5,7.4,442.4,0.5,451,0.5z"/>
			</g>
			
				<ellipse id="Oval_5_" transform="matrix(2.390582e-06 1 -1 2.390582e-06 466.6176 -436.5229)" class="st1" cx="451.6" cy="15" rx="10.9" ry="10.7"/>
		</g>
		<defs>
			<filter id="Adobe_OpacityMaskFilter_2_" filterUnits="userSpaceOnUse" x="1511" y="274" width="76.7" height="55.5">
				<feColorMatrix  type="matrix" values="1 0 0 0 0  0 1 0 0 0  0 0 1 0 0  0 0 0 1 0"/>
			</filter>
		</defs>
		<mask maskUnits="userSpaceOnUse" x="1511" y="274" width="76.7" height="55.5" id="mask-6">
			<g class="st9">
				<path id="path-5" class="st1" d="M429.5,135h46c8.6,0,15.5,6.9,15.5,15.5l0,0c0,8.6-6.9,15.5-15.5,15.5h-46
					c-8.6,0-15.5-6.9-15.5-15.5l0,0C414,141.9,420.9,135,429.5,135z"/>
			</g>
		</mask>
		
			<g id="toggle_2_" transform="translate(1135.398324, 166.808597) rotate(334.000000) translate(-1135.398324, -166.808597) translate(1096.898324, 151.308597)" class="st10">
			<g id="Rectangle_2_">
				<path id="path-5_1_" class="st6" d="M328.4,302.8h46c8.6,0,15.5,6.9,15.5,15.5l0,0c0,8.6-6.9,15.5-15.5,15.5h-46
					c-8.6,0-15.5-6.9-15.5-15.5l0,0C312.9,309.8,319.9,302.8,328.4,302.8z"/>
			</g>
			
				<ellipse id="Oval_6_" transform="matrix(2.647412e-06 1 -1 2.647412e-06 646.4472 -11.6267)" class="st1" cx="329" cy="317.4" rx="10.9" ry="10.7"/>
		</g>
		<defs>
			<filter id="Adobe_OpacityMaskFilter_3_" filterUnits="userSpaceOnUse" x="1394" y="471" width="76.7" height="55.5">
				<feColorMatrix  type="matrix" values="1 0 0 0 0  0 1 0 0 0  0 0 1 0 0  0 0 0 1 0"/>
			</filter>
		</defs>
		<mask maskUnits="userSpaceOnUse" x="1394" y="471" width="76.7" height="55.5" id="mask-8">
			<g class="st11">
				<path id="path-7" class="st1" d="M429.5,135h46c8.6,0,15.5,6.9,15.5,15.5l0,0c0,8.6-6.9,15.5-15.5,15.5h-46
					c-8.6,0-15.5-6.9-15.5-15.5l0,0C414,141.9,420.9,135,429.5,135z"/>
			</g>
		</mask>
		
			<g id="toggle_3_" transform="translate(1018.398324, 363.808597) rotate(386.000000) translate(-1018.398324, -363.808597) translate(979.898324, 348.308597)" class="st12">
			<g id="Rectangle_3_">
				<path id="path-7_1_" class="st13" d="M446.8-60.1l46,0c8.6,0,15.5,6.9,15.5,15.5l0,0c0,8.6-6.9,15.5-15.5,15.5l-46,0
					c-8.6,0-15.5-6.9-15.5-15.5l0,0C431.3-53.2,438.2-60.1,446.8-60.1z"/>
			</g>
			
				<ellipse id="Oval_7_" transform="matrix(2.422951e-06 1 -1 2.422951e-06 401.8359 -492.9572)" class="st14" cx="447.4" cy="-45.6" rx="10.9" ry="10.7"/>
		</g>
		<defs>
			<filter id="Adobe_OpacityMaskFilter_4_" filterUnits="userSpaceOnUse" x="765.3" y="212.3" width="78.3" height="51.8">
				<feColorMatrix  type="matrix" values="1 0 0 0 0  0 1 0 0 0  0 0 1 0 0  0 0 0 1 0"/>
			</filter>
		</defs>
		<mask maskUnits="userSpaceOnUse" x="765.3" y="212.3" width="78.3" height="51.8" id="mask-10">
			<g class="st15">
				<path id="path-9" class="st1" d="M429.5,135h46c8.6,0,15.5,6.9,15.5,15.5l0,0c0,8.6-6.9,15.5-15.5,15.5h-46
					c-8.6,0-15.5-6.9-15.5-15.5l0,0C414,141.9,420.9,135,429.5,135z"/>
			</g>
		</mask>
		
			<g id="toggle_4_" transform="translate(390.497550, 103.267663) rotate(699.000000) translate(-390.497550, -103.267663) translate(351.997550, 87.767663)" class="st16">
			<g id="Rectangle_4_">
				<path id="path-9_1_" class="st13" d="M353.6,274.4h46c8.6,0,15.5,6.9,15.5,15.5l0,0c0,8.6-6.9,15.5-15.5,15.5h-46
					c-8.6,0-15.5-6.9-15.5-15.5l0,0C338.1,281.3,345.1,274.4,353.6,274.4z"/>
			</g>
			
				<ellipse id="Oval_8_" transform="matrix(2.345414e-06 1 -1 2.345414e-06 643.2242 -65.2536)" class="st14" cx="354.2" cy="289" rx="10.9" ry="10.7"/>
		</g>
		<g id="menu" transform="translate(1250.000000, 247.000000)">
			<path id="lines" class="st1" d="M414,163h42v-4.7h-42V163L414,163z M414,151.3h42v-4.7h-42V151.3L414,151.3z M414,135v4.7h42V135
				H414L414,135z"/>
		</g>
		<g id="menu_1_" transform="translate(1018.000000, 47.000000)">
			<path id="lines_1_" class="st1" d="M414,163h42v-4.7h-42V163L414,163z M414,151.3h42v-4.7h-42V151.3L414,151.3z M414,135v4.7h42
				V135H414L414,135z"/>
		</g>
		<g id="menu_2_" transform="translate(260.000000, 204.000000)">
			<path id="lines_2_" class="st1" d="M414,163h42v-4.7h-42V163L414,163z M414,151.3h42v-4.7h-42V151.3L414,151.3z M414,135v4.7h42
				V135H414L414,135z"/>
		</g>
	</g>
</g>
</svg>
