<?xml version="1.0" encoding="utf-8"?>
<!-- Generator: Adobe Illustrator 19.1.0, SVG Export Plug-In . SVG Version: 6.00 Build 0)  -->
<svg version="1.1" xmlns="http://www.w3.org/2000/svg" xmlns:xlink="http://www.w3.org/1999/xlink" x="0px" y="0px"
	 viewBox="414 135 1440 524" style="enable-background:new 414 135 1440 524;" xml:space="preserve">
<style type="text/css">
	.st0{display:none;}
	.st1{display:inline;}
	.st2{opacity:0.3;}
	.st3{fill:#FFFFFF;}
	.st4{opacity:0.3;fill:#FFFFFF;}
</style>
<g id="Layer_2" class="st0">
	<rect x="386" y="113" class="st1" width="1481" height="569"/>
</g>
<g id="Layer_1">
	<title>Material Splash</title>
	<desc>Homepage Hero Background</desc>
	<g id="material-splash">
		<g id="fab_4_" transform="translate(454.000000, 362.000000)" class="st2">
			<path class="st3" d="M32.5-131.3l0.2,2.8c0.4,5.5-0.4,13.2-6.2,19.3l-2.2,2.3l19,5.6c2.3,0.7,4.7,0.7,7,0.1
				c4.4-1.2,7.7-4.5,9-8.8c2-6.8-1.9-14-8.7-16L32.5-131.3z M55.5-111.1c-0.9,3-3.2,5.3-6.3,6.1c-1.6,0.4-3.3,0.4-4.8-0.1l-13-3.9
				c4.2-5.7,5.3-12.3,5.3-17.1l12.8,3.8C54.2-120.8,56.9-115.8,55.5-111.1z"/>
			<path class="st3" d="M3.9-113.5l17,5l0.2-0.2c1.5-1.2,2.7-2.5,3.7-3.8l-16.3-4.8c-0.6-0.2-1-0.8-0.8-1.5c0.1-0.4,0.4-0.7,0.8-0.8
				c0.2-0.1,0.4-0.1,0.6,0c0,0,16.8,5,16.9,5.2c3.8-6.4,3.4-13.7,2.9-17l-0.1-0.4l-18.1-5.3c-2.2-0.6-4.5-0.7-6.7-0.1
				c-4.2,1.1-7.4,4.3-8.6,8.4C-6.4-122.3-2.6-115.4,3.9-113.5z"/>
		</g>
		<g id="fab_5_" transform="translate(454.000000, 362.000000)" class="st2">
			<path class="st3" d="M1004.9,178.2l0.5-2.8c1.1-5.4,3.8-12.7,10.9-17l2.7-1.7l-16.9-10.3c-2-1.2-4.3-1.9-6.7-1.9
				c-4.5,0-8.6,2.3-11,6.2c-3.7,6.1-1.8,14,4.3,17.7L1004.9,178.2z M987.9,152.7c1.6-2.7,4.5-4.3,7.6-4.3c1.6,0,3.3,0.5,4.7,1.3
				l11.6,7.1c-5.6,4.4-8.3,10.5-9.6,15.1l-11.4-7C986.7,162.5,985.3,156.9,987.9,152.7z"/>
			<path class="st3" d="M1037.2,168.4l-15.1-9.2l-0.3,0.1c-1.8,0.8-3.3,1.7-4.6,2.7l14.5,8.9c0.5,0.3,0.7,1.1,0.4,1.6
				c-0.2,0.4-0.6,0.6-1,0.6c-0.2,0-0.4-0.1-0.6-0.2c0,0-14.9-9.2-15-9.4c-5.3,5.2-6.8,12.3-7.2,15.7l0,0.4l16.1,9.8
				c1.9,1.2,4.2,1.8,6.4,1.8c4.3,0,8.3-2.2,10.5-5.9C1044.8,179.5,1043,171.9,1037.2,168.4z"/>
		</g>
	</g>
	<g class="st2">
		<path class="st3" d="M661.8,402.5c-0.7,0-1.3,0.4-1.7,1l-2.7,5.2l-3.4-9.9c-0.3-0.7-0.9-1.3-1.7-1.3c-0.8,0-1.5,0.4-1.8,1.2
			l-2.3,5.5l-3.6-21.8c-0.2-0.9-1-1.6-1.9-1.6c-0.9,0-1.7,0.6-1.8,1.6l-3.2,25.4l-2.6-13.6c-0.2-0.8-0.8-1.4-1.6-1.5
			c-0.8-0.1-1.6,0.3-2,1.1l-4.3,8.9h-6.6v3.8h7.8c0.7,0,1.4-0.4,1.7-1.1l2.3-4.8l3.7,19.3c0.2,0.9,1,1.5,1.9,1.5c0,0,0,0,0.1,0
			c0.9,0,1.7-0.7,1.8-1.6l3.2-24.9l2.7,16.4c0.1,0.8,0.8,1.5,1.7,1.5c0.8,0.1,1.6-0.4,2-1.2l2.9-6.8l3.2,9.3
			c0.2,0.7,0.9,1.2,1.6,1.3c0.8,0,1.5-0.3,1.8-1l4.3-8h8.2v-3.8H661.8L661.8,402.5z"/>
	</g>
	<g class="st2">
		<path class="st3" d="M1503.6,223c-0.7,0-1.3,0.4-1.7,1l-2.7,5.2l-3.4-9.9c-0.3-0.7-0.9-1.3-1.7-1.3c-0.8,0-1.5,0.4-1.8,1.2
			l-2.3,5.5l-3.6-21.8c-0.2-0.9-1-1.6-1.9-1.6c-0.9,0-1.7,0.6-1.8,1.6l-3.2,25.4l-2.6-13.6c-0.2-0.8-0.8-1.4-1.6-1.5
			c-0.8-0.1-1.6,0.3-2,1.1l-4.3,8.9h-6.6v3.8h7.8c0.7,0,1.4-0.4,1.7-1.1l2.3-4.8l3.7,19.3c0.2,0.9,1,1.5,1.9,1.5c0,0,0,0,0.1,0
			c0.9,0,1.7-0.7,1.8-1.6l3.2-24.9l2.7,16.4c0.1,0.8,0.8,1.5,1.7,1.5c0.8,0.1,1.6-0.4,2-1.2l2.9-6.8l3.2,9.3
			c0.2,0.7,0.9,1.2,1.6,1.3c0.8,0,1.5-0.3,1.8-1l4.3-8h8.2V223H1503.6L1503.6,223z"/>
	</g>
	<g class="st2">
		<path class="st3" d="M809.1,237.1c-5.8-2.2-12.3-3.9-20.2,0.1c-7.8,4-10.3,10.3-11.9,16.2c-5.8-2.2-12.3-3.9-20.2,0.1l2.1,4.2
			c1.5-0.8,2.9-1.3,4.3-1.6l6.6,13c-1,0.9-2.3,1.8-3.8,2.6l2.1,4.2c7.8-4,10.3-10.3,11.9-16.2c5.8,2.2,12.3,3.9,20.2-0.1
			c7.8-4,10.3-10.3,12-16.2c5.8,2.2,12.3,3.9,20.2-0.1l-2.1-4.2c-1.8,0.9-3.5,1.5-5.1,1.7l-6.4-12.6c1.2-1.2,2.6-2.2,4.4-3.1
			l-2.1-4.2C813.2,224.9,810.7,231.2,809.1,237.1z M775.8,258.1c-0.8,2.9-1.6,5.6-3.1,8l-5.2-10.1C770.3,256.1,773,257,775.8,258.1z
			 M789.7,257.4c-2.8-0.2-5.5-1.1-8.3-2.1c0.8-2.9,1.6-5.6,3.1-8L789.7,257.4z M798.2,255.5c-1.5,0.8-2.9,1.3-4.3,1.6l-6.6-13
			c1-0.9,2.3-1.8,3.8-2.6c1.1-0.5,2.1-1,3.1-1.3l6.9,13.5C800.3,254.4,799.3,255,798.2,255.5z M807.9,241.7
			c-0.9,3.4-1.9,6.4-3.9,9.1l-5.7-11.2C801.6,239.5,804.7,240.5,807.9,241.7z M820.9,240.9c-2.5-0.3-4.9-1.1-7.3-2.1
			c0.7-2.6,1.4-5,2.6-7.1L820.9,240.9z"/>
	</g>
	<g class="st2">
		<path class="st3" d="M1662.1,357.1c-5.8-2.2-12.3-3.9-20.2,0.1c-7.8,4-10.3,10.3-11.9,16.2c-5.8-2.2-12.3-3.9-20.2,0.1l2.1,4.2
			c1.5-0.8,2.9-1.3,4.3-1.6l6.6,13c-1,0.9-2.3,1.8-3.8,2.6l2.1,4.2c7.8-4,10.3-10.3,11.9-16.2c5.8,2.2,12.3,3.9,20.2-0.1
			c7.8-4,10.3-10.3,12-16.2c5.8,2.2,12.3,3.9,20.2-0.1l-2.1-4.2c-1.8,0.9-3.5,1.5-5.1,1.7l-6.4-12.6c1.2-1.2,2.6-2.2,4.4-3.1
			l-2.1-4.2C1666.2,344.9,1663.7,351.2,1662.1,357.1z M1628.8,378.1c-0.8,2.9-1.6,5.6-3.1,8l-5.2-10.1
			C1623.3,376.1,1626,377,1628.8,378.1z M1642.7,377.4c-2.8-0.2-5.5-1.1-8.3-2.1c0.8-2.9,1.6-5.6,3.1-8L1642.7,377.4z M1651.2,375.5
			c-1.5,0.8-2.9,1.3-4.3,1.6l-6.6-13c1-0.9,2.3-1.8,3.8-2.6c1.1-0.5,2.1-1,3.1-1.3l6.9,13.5C1653.3,374.4,1652.3,375,1651.2,375.5z
			 M1660.9,361.7c-0.9,3.4-1.9,6.4-3.9,9.1l-5.7-11.2C1654.6,359.5,1657.7,360.5,1660.9,361.7z M1673.9,360.9
			c-2.5-0.3-4.9-1.1-7.3-2.1c0.7-2.6,1.4-5,2.6-7.1L1673.9,360.9z"/>
	</g>
	<path class="st4" d="M584.4,559l-9.4-9.4c-0.8-0.8-2.2-0.8-3,0c-0.8,0.8-0.8,2.2,0,3l0.8,0.8l-8.9,8.9l-2.1-2.1
		c-0.4-0.4-1-0.6-1.5-0.6s-1.1,0.2-1.5,0.6l-27.5,27.5c-2.8,2.8-2.8,7.3,0,10.1l0.9,0.9l-10.4,10.4c-0.8,0.8-0.8,2.2,0,3
		c0.4,0.4,1,0.6,1.5,0.6c0.6,0,1.1-0.2,1.5-0.6l10.4-10.4l0.9,0.9c1.4,1.4,3.2,2.1,5.1,2.1c1.8,0,3.7-0.7,5.1-2.1l27.5-27.5
		c0.4-0.4,0.6-1,0.6-1.5s-0.2-1.1-0.6-1.5l-2.1-2.1l8.9-8.9l0.8,0.8c0.4,0.4,1,0.6,1.5,0.6c0.6,0,1.1-0.2,1.5-0.6
		C585.2,561.3,585.2,559.9,584.4,559z M543.1,599.8c-1.1,1.1-2.9,1.1-4,0l-4.9-4.9c-1.1-1.1-1.1-2.9,0-4l2.6-2.6l2.3,2.3
		c0.3,0.3,0.7,0.4,1.1,0.4c0.4,0,0.8-0.1,1.1-0.4c0.6-0.6,0.6-1.5,0-2.1l-2.3-2.3l2.6-2.6l2.3,2.3c0.3,0.3,0.7,0.4,1.1,0.4
		s0.8-0.1,1.1-0.4c0.6-0.6,0.6-1.5,0-2.1l-2.3-2.3l2.6-2.6l2.3,2.3c0.3,0.3,0.7,0.4,1.1,0.4c0.4,0,0.8-0.1,1.1-0.4
		c0.6-0.6,0.6-1.5,0-2.1l-2.3-2.3l2.2-2.2l8.9,8.9L543.1,599.8z M562.6,580.3l-8.9-8.9l6.5-6.5l8.9,8.9L562.6,580.3z M568.6,567.2
		l-1.7-1.7l8.9-8.9l1.7,1.7L568.6,567.2z"/>
	<g class="st2">
		<g>
			<path class="st3" d="M1744.7,173.6c-0.4,1-0.3,2.2,0.3,3.1c0.5,0.8,1.1,1.5,1.8,2.1c-1.2,1.3-3.1,3-5.7,4.6
				c-2.5,1.5-3.8,4.1-3.7,7.2c0.2,4.6,3.3,9.2,7.8,11.5c3.1,1.6,6.6,1.6,9.8-0.1c4.6-2.3,8-7.5,9.1-13.8c1-5.9,4.5-7.5,6.5-7.9
				c0.6,1.7,1.8,3.2,3.5,4c3.5,1.8,7.8,0.4,9.6-3.1c1.8-3.5,0.4-7.8-3.1-9.6c-3.5-1.8-7.8-0.4-9.6,3.1c-0.3,0.5-0.4,1-0.6,1.5
				c-3.6,0.6-8.9,3.4-10.3,11.3c-0.8,5-3.5,9.2-6.9,10.9c-1.5,0.7-3.7,1.3-6.2,0.1c-3.2-1.6-5.5-4.9-5.6-8c0-1.1,0.2-2.7,1.8-3.6
				c3.5-2.1,5.9-4.4,7.2-5.9c1.1,0.4,2.3,0.6,3.6,0.5c1.1,0,2.1-0.6,2.7-1.5c6.1-1.7,11.6-7.5,11.9-7.9c0.6-0.7,0.7-1.7,0.2-2.5
				c3.2-4.8,2.6-8.4,2-10.1c0.3-0.4,0.4-1.1,0.1-1.6l-1.4-2.5c-0.4-0.6-1.2-0.8-1.8-0.4l-2,1.4c-0.6,0.4-0.7,1.2-0.1,1.7l2,1.9
				c0.5,0.5,1.4,0.6,2,0.2c0.4,1.5,0.7,4.4-2,8.4c-0.7-0.2-1.5,0-2,0.6c-1.6,1.8-5.4,5.2-9.2,6.5c-0.6-0.7-1.5-1.1-2.6-1.1
				c-0.7,0-1.2-0.1-1.8-0.4l-0.1-0.1c-0.5-0.3-1-0.7-1.4-1.3c-0.6-0.8-1.4-1.3-2.3-1.4c-1.1-3.8-0.6-8.8-0.1-11.1
				c0.2-0.8-0.2-1.5-0.7-2c1.7-4.5,4.2-6,5.7-6.5c0.1,0.7,0.6,1.4,1.3,1.5l2.7,0.5c0.7,0.1,1.3-0.4,1.3-1.1l0-2.5
				c0-0.7-0.6-1.3-1.3-1.2l-2.8,0.3c-0.6,0.1-1,0.5-1.2,1c-1.7,0.5-4.9,2.1-7,7.5c-0.9,0-1.7,0.7-1.9,1.6
				C1744.1,160.1,1742.6,167.7,1744.7,173.6z M1778.5,175.5c1.4,0.7,1.9,2.4,1.2,3.8c-0.7,1.4-2.4,1.9-3.8,1.2
				c-1.4-0.7-1.9-2.4-1.2-3.8C1775.5,175.3,1777.2,174.8,1778.5,175.5z"/>
		</g>
	</g>
</g>
</svg>
