<?xml version="1.0" encoding="UTF-8" standalone="no"?>
<!-- Created with Inkscape (http://www.inkscape.org/) -->

<svg
   xmlns:dc="http://purl.org/dc/elements/1.1/"
   xmlns:cc="http://creativecommons.org/ns#"
   xmlns:rdf="http://www.w3.org/1999/02/22-rdf-syntax-ns#"
   xmlns:svg="http://www.w3.org/2000/svg"
   xmlns="http://www.w3.org/2000/svg"
   xmlns:sodipodi="http://sodipodi.sourceforge.net/DTD/sodipodi-0.dtd"
   xmlns:inkscape="http://www.inkscape.org/namespaces/inkscape"
   width="58.529011mm"
   height="15.020963mm"
   viewBox="0 0 207.38626 53.223883"
   id="svg6054"
   version="1.1"
   inkscape:version="0.91 r13725"
   sodipodi:docname="huglogo.svg">
  <defs
     id="defs6056">
    <clipPath
       clipPathUnits="userSpaceOnUse"
       id="clipPath3352">
      <path
         d="m 0,0 595.42,0 0,841.67 L 0,841.67 0,0 Z"
         id="path3354"
         inkscape:connector-curvature="0" />
    </clipPath>
    <clipPath
       clipPathUnits="userSpaceOnUse"
       id="clipPath3366">
      <path
         d="m 0,841.67 0,-842.27895 595.32,0 0,842.27895"
         id="path3368"
         inkscape:connector-curvature="0"
         style="clip-rule:evenodd" />
    </clipPath>
    <clipPath
       clipPathUnits="userSpaceOnUse"
       id="clipPath3376">
      <path
         d="m 0,841.67 0,-842.27895 595.32,0 0,842.27895"
         id="path3378"
         inkscape:connector-curvature="0"
         style="clip-rule:evenodd" />
    </clipPath>
    <clipPath
       clipPathUnits="userSpaceOnUse"
       id="clipPath3386">
      <path
         d="m 0,841.67 0,-842.27895 595.32,0 0,842.27895"
         id="path3388"
         inkscape:connector-curvature="0"
         style="clip-rule:evenodd" />
    </clipPath>
    <clipPath
       clipPathUnits="userSpaceOnUse"
       id="clipPath3396">
      <path
         d="m 0,841.67 0,-842.27895 595.32,0 0,842.27895"
         id="path3398"
         inkscape:connector-curvature="0"
         style="clip-rule:evenodd" />
    </clipPath>
    <clipPath
       clipPathUnits="userSpaceOnUse"
       id="clipPath3406">
      <path
         d="m 0,841.67 0,-842.27895 595.32,0 0,842.27895"
         id="path3408"
         inkscape:connector-curvature="0"
         style="clip-rule:evenodd" />
    </clipPath>
    <clipPath
       clipPathUnits="userSpaceOnUse"
       id="clipPath3416">
      <path
         d="m 0,841.67 0,-842.27895 595.32,0 0,842.27895"
         id="path3418"
         inkscape:connector-curvature="0"
         style="clip-rule:evenodd" />
    </clipPath>
    <clipPath
       clipPathUnits="userSpaceOnUse"
       id="clipPath3426">
      <path
         d="m 0,841.67 0,-842.27895 595.32,0 0,842.27895"
         id="path3428"
         inkscape:connector-curvature="0"
         style="clip-rule:evenodd" />
    </clipPath>
    <clipPath
       clipPathUnits="userSpaceOnUse"
       id="clipPath3436">
      <path
         d="m 0,841.67 0,-842.27895 595.32,0 0,842.27895"
         id="path3438"
         inkscape:connector-curvature="0" />
    </clipPath>
    <clipPath
       clipPathUnits="userSpaceOnUse"
       id="clipPath3446">
      <path
         d="m 0,841.67 0,-842.27895 595.32,0 0,842.27895"
         id="path3448"
         inkscape:connector-curvature="0" />
    </clipPath>
    <clipPath
       clipPathUnits="userSpaceOnUse"
       id="clipPath3456">
      <path
         d="m 0,841.67 0,-842.27895 595.32,0 0,842.27895"
         id="path3458"
         inkscape:connector-curvature="0" />
    </clipPath>
    <clipPath
       clipPathUnits="userSpaceOnUse"
       id="clipPath3466">
      <path
         d="m 0,841.67 0,-842.27895 595.32,0 0,842.27895"
         id="path3468"
         inkscape:connector-curvature="0" />
    </clipPath>
    <clipPath
       clipPathUnits="userSpaceOnUse"
       id="clipPath3476">
      <path
         d="m 0,841.67 0,-842.27895 595.32,0 0,842.27895"
         id="path3478"
         inkscape:connector-curvature="0" />
    </clipPath>
    <clipPath
       clipPathUnits="userSpaceOnUse"
       id="clipPath3486">
      <path
         d="m 0,841.67 0,-842.27895 595.32,0 0,842.27895"
         id="path3488"
         inkscape:connector-curvature="0" />
    </clipPath>
    <clipPath
       clipPathUnits="userSpaceOnUse"
       id="clipPath3496">
      <path
         d="m 0,841.67 0,-842.27895 595.32,0 0,842.27895"
         id="path3498"
         inkscape:connector-curvature="0" />
    </clipPath>
    <clipPath
       clipPathUnits="userSpaceOnUse"
       id="clipPath3506">
      <path
         d="m 0,841.67 0,-842.27895 595.32,0 0,842.27895"
         id="path3508"
         inkscape:connector-curvature="0" />
    </clipPath>
    <clipPath
       clipPathUnits="userSpaceOnUse"
       id="clipPath3516">
      <path
         d="m 0,841.67 0,-842.27895 595.32,0 0,842.27895"
         id="path3518"
         inkscape:connector-curvature="0" />
    </clipPath>
    <clipPath
       clipPathUnits="userSpaceOnUse"
       id="clipPath3526">
      <path
         d="m 0,841.67 0,-842.27895 595.32,0 0,842.27895"
         id="path3528"
         inkscape:connector-curvature="0" />
    </clipPath>
    <clipPath
       clipPathUnits="userSpaceOnUse"
       id="clipPath3536">
      <path
         d="m 0,841.67 0,-842.27895 595.32,0 0,842.27895"
         id="path3538"
         inkscape:connector-curvature="0" />
    </clipPath>
    <clipPath
       clipPathUnits="userSpaceOnUse"
       id="clipPath3546">
      <path
         d="m 0,841.67 0,-842.27895 595.32,0 0,842.27895"
         id="path3548"
         inkscape:connector-curvature="0" />
    </clipPath>
    <clipPath
       clipPathUnits="userSpaceOnUse"
       id="clipPath3556">
      <path
         d="m 0,841.67 0,-842.27895 595.32,0 0,842.27895"
         id="path3558"
         inkscape:connector-curvature="0" />
    </clipPath>
    <clipPath
       clipPathUnits="userSpaceOnUse"
       id="clipPath3566">
      <path
         d="m 0,841.67 0,-842.27895 595.32,0 0,842.27895"
         id="path3568"
         inkscape:connector-curvature="0" />
    </clipPath>
    <clipPath
       clipPathUnits="userSpaceOnUse"
       id="clipPath3576">
      <path
         d="m 0,841.67 0,-842.27895 595.32,0 0,842.27895"
         id="path3578"
         inkscape:connector-curvature="0" />
    </clipPath>
    <clipPath
       clipPathUnits="userSpaceOnUse"
       id="clipPath3586">
      <path
         d="m 0,841.67 0,-842.27895 595.32,0 0,842.27895"
         id="path3588"
         inkscape:connector-curvature="0" />
    </clipPath>
    <clipPath
       clipPathUnits="userSpaceOnUse"
       id="clipPath3596">
      <path
         d="m 0,841.67 0,-842.27895 595.32,0 0,842.27895"
         id="path3598"
         inkscape:connector-curvature="0" />
    </clipPath>
    <clipPath
       clipPathUnits="userSpaceOnUse"
       id="clipPath3606">
      <path
         d="m 0,841.67 0,-842.27895 595.32,0 0,842.27895"
         id="path3608"
         inkscape:connector-curvature="0" />
    </clipPath>
    <clipPath
       clipPathUnits="userSpaceOnUse"
       id="clipPath3616">
      <path
         d="m 0,841.67 0,-842.27895 595.32,0 0,842.27895"
         id="path3618"
         inkscape:connector-curvature="0" />
    </clipPath>
    <clipPath
       clipPathUnits="userSpaceOnUse"
       id="clipPath3626">
      <path
         d="m 0,841.67 0,-842.27895 595.32,0 0,842.27895"
         id="path3628"
         inkscape:connector-curvature="0" />
    </clipPath>
    <clipPath
       clipPathUnits="userSpaceOnUse"
       id="clipPath3636">
      <path
         d="m 0,841.67 0,-842.27895 595.32,0 0,842.27895"
         id="path3638"
         inkscape:connector-curvature="0" />
    </clipPath>
    <clipPath
       clipPathUnits="userSpaceOnUse"
       id="clipPath3646">
      <path
         d="m 0,841.67 0,-842.27895 595.32,0 0,842.27895"
         id="path3648"
         inkscape:connector-curvature="0" />
    </clipPath>
    <clipPath
       clipPathUnits="userSpaceOnUse"
       id="clipPath3656">
      <path
         d="m 0,841.67 0,-842.27895 595.32,0 0,842.27895"
         id="path3658"
         inkscape:connector-curvature="0" />
    </clipPath>
    <clipPath
       clipPathUnits="userSpaceOnUse"
       id="clipPath3666">
      <path
         d="m 0,841.67 0,-842.27895 595.32,0 0,842.27895"
         id="path3668"
         inkscape:connector-curvature="0" />
    </clipPath>
    <clipPath
       clipPathUnits="userSpaceOnUse"
       id="clipPath3676">
      <path
         d="m 0,841.67 0,-842.27895 595.32,0 0,842.27895"
         id="path3678"
         inkscape:connector-curvature="0" />
    </clipPath>
    <clipPath
       clipPathUnits="userSpaceOnUse"
       id="clipPath3686">
      <path
         d="m 0,841.67 0,-842.27895 595.32,0 0,842.27895"
         id="path3688"
         inkscape:connector-curvature="0" />
    </clipPath>
    <clipPath
       clipPathUnits="userSpaceOnUse"
       id="clipPath3696">
      <path
         d="m 0,841.67 0,-842.27895 595.32,0 0,842.27895"
         id="path3698"
         inkscape:connector-curvature="0" />
    </clipPath>
    <clipPath
       clipPathUnits="userSpaceOnUse"
       id="clipPath3706">
      <path
         d="m 0,841.67 0,-842.27895 595.32,0 0,842.27895"
         id="path3708"
         inkscape:connector-curvature="0" />
    </clipPath>
  </defs>
  <sodipodi:namedview
     id="base"
     pagecolor="#ffffff"
     bordercolor="#666666"
     borderopacity="1.0"
     inkscape:pageopacity="0.0"
     inkscape:pageshadow="2"
     inkscape:zoom="3.959798"
     inkscape:cx="121.79918"
     inkscape:cy="-10.144811"
     inkscape:document-units="px"
     inkscape:current-layer="layer1"
     showgrid="false"
     fit-margin-top="1"
     fit-margin-left="1"
     fit-margin-right="1"
     fit-margin-bottom="1"
     inkscape:window-width="1920"
     inkscape:window-height="1177"
     inkscape:window-x="1912"
     inkscape:window-y="-8"
     inkscape:window-maximized="1" />
  <metadata
     id="metadata6059">
    <rdf:RDF>
      <cc:Work
         rdf:about="">
        <dc:format>image/svg+xml</dc:format>
        <dc:type
           rdf:resource="http://purl.org/dc/dcmitype/StillImage" />
        <dc:title></dc:title>
      </cc:Work>
    </rdf:RDF>
  </metadata>
  <g
     inkscape:label="Calque 1"
     inkscape:groupmode="layer"
     id="layer1"
     transform="translate(-328.39963,-497.94556)">
    <g
       transform="matrix(1.2489222,0,0,-1.2503325,286.69199,1509.3944)"
       id="g3348">
      <g
         clip-path="url(#clipPath3352)"
         id="g3350">
        <g
           id="g3356">
          <g
             id="g3358">
            <g
               id="g3360" />
          </g>
          <g
             id="g3362">
            <g
               clip-path="url(#clipPath3366)"
               id="g3364">
              <path
                 inkscape:connector-curvature="0"
                 id="path3370"
                 style="fill:#FFFFFF;fill-opacity:1;fill-rule:nonzero;stroke:none"
                 d="m 58.962,786.08 0,0 0,6.53 -12.078,0 0,12.83 -10.652,0 0,-35.56 10.652,0 0,14.85 12.078,0 0,-14.85 10.577,0 c -2.1,0.53 -3.901,1.35 -5.551,2.4 -4.426,3.08 -5.026,8.55 -5.026,13.8 z" />
            </g>
          </g>
          <g
             id="g3372">
            <g
               clip-path="url(#clipPath3376)"
               id="g3374">
              <path
                 inkscape:connector-curvature="0"
                 id="path3380"
                 style="fill:#FFFFFF;fill-opacity:1;fill-rule:nonzero;stroke:none"
                 d="m 92.344,803.56 0,0 0,1.88 -9.977,0 0,-18.01 c 0.075,7.28 3.825,13.06 9.977,16.13 z" />
            </g>
          </g>
          <g
             id="g3382">
            <g
               clip-path="url(#clipPath3386)"
               id="g3384">
              <path
                 inkscape:connector-curvature="0"
                 id="path3390"
                 style="fill:#FFFFFF;fill-opacity:1;fill-rule:nonzero;stroke:none"
                 d="m 82.367,787.13 0,0 0,-0.9 c 0,-5.25 -0.826,-8.25 -6.677,-8.25 -5.026,0 -6.001,2.93 -6.151,7.13 l 0,-15.23 0,0 c 1.8,-0.45 3.826,-0.67 5.926,-0.67 5.476,0 9.902,1.57 12.903,4.57 -3.751,3.08 -5.926,7.73 -6.001,13.35 z" />
            </g>
          </g>
          <g
             id="g3392">
            <g
               clip-path="url(#clipPath3396)"
               id="g3394">
              <path
                 inkscape:connector-curvature="0"
                 id="path3400"
                 style="fill:#FFFFFF;fill-opacity:1;fill-rule:nonzero;stroke:none"
                 d="m 69.539,785.11 0,0 c 0,0.37 0,0.75 0,1.12 l 0,19.21 -10.577,0 0,-12.83 0,0 0,-6.53 c 0,-5.25 0.6,-10.72 5.026,-13.8 1.65,-1.05 3.451,-1.87 5.551,-2.4 l 0,0 0,15.23 z" />
            </g>
          </g>
          <g
             id="g3402">
            <g
               clip-path="url(#clipPath3406)"
               id="g3404">
              <path
                 inkscape:connector-curvature="0"
                 id="path3410"
                 style="fill:#FFFFFF;fill-opacity:1;fill-rule:nonzero;stroke:none"
                 d="m 104.2,797.79 0,0 c 2.92,0 5.7,-0.6 8.25,-1.65 l 2.55,7.65 c -2.55,1.12 -6.6,2.32 -11.48,2.32 -4.275,0 -8.026,-0.9 -11.176,-2.55 l 0,-16.2 c 0,6.23 4.951,10.43 11.856,10.43 z" />
            </g>
          </g>
          <g
             id="g3412">
            <g
               clip-path="url(#clipPath3416)"
               id="g3414">
              <path
                 inkscape:connector-curvature="0"
                 id="path3420"
                 style="fill:#FFFFFF;fill-opacity:1;fill-rule:nonzero;stroke:none"
                 d="m 105.32,777.83 0,0 c -0.75,-0.22 -1.57,-0.22 -2.55,-0.22 -5.925,0 -10.426,3.97 -10.426,9.75 l 0,-0.75 c 0,-5.25 -0.601,-9.53 -3.826,-12.75 0,0 -0.075,-0.08 -0.15,-0.08 3.451,-2.92 8.176,-4.5 13.732,-4.5 3.15,0 6.67,0.53 9.67,1.58 0.6,0.15 1.43,0.45 3,1.12 l 0,15.9 -9.45,0 0,-10.05 z" />
            </g>
          </g>
          <g
             id="g3422">
            <g
               clip-path="url(#clipPath3426)"
               id="g3424">
              <path
                 inkscape:connector-curvature="0"
                 id="path3430"
                 style="fill:#FFFFFF;fill-opacity:1;fill-rule:nonzero;stroke:none"
                 d="m 92.344,786.61 0,0 0,0.75 0,16.2 c -6.152,-3.07 -9.902,-8.85 -9.977,-16.13 l 0,-0.3 c 0.075,-5.62 2.25,-10.27 6.001,-13.35 0.075,0 0.15,0.08 0.15,0.08 3.225,3.22 3.826,7.5 3.826,12.75 z" />
            </g>
          </g>
          <g
             id="g3432">
            <g
               clip-path="url(#clipPath3436)"
               id="g3434">
              <path
                 inkscape:connector-curvature="0"
                 id="path3440"
                 style="fill:#FFFFFF;fill-opacity:1;fill-rule:nonzero;stroke:none"
                 d="m 133.38,795.31 0,0 0,4.13 -4.73,0 0,-4.13 -0.97,0 0,8.7 0.97,0 0,-3.75 4.73,0 0,3.75 0.97,0 0,-8.7 -0.97,0 z" />
            </g>
          </g>
          <g
             id="g3442">
            <g
               clip-path="url(#clipPath3446)"
               id="g3444">
              <path
                 inkscape:connector-curvature="0"
                 id="path3450"
                 style="fill:#FFFFFF;fill-opacity:1;fill-rule:nonzero;stroke:none"
                 d="m 138.7,795.16 0,0 c -1.65,0 -2.7,1.28 -2.7,3.15 0,0.98 0.23,1.58 0.68,2.18 0.6,0.67 1.35,1.05 2.17,1.05 1.58,0 2.7,-1.28 2.7,-3.15 0,-1.8 -1.2,-3.23 -2.85,-3.23 z m 1.5,6.9 0,0 -1.42,0.9 -1.43,-0.9 -0.45,0.53 1.88,1.57 1.87,-1.57 -0.45,-0.53 z m -1.42,-1.35 0,0 c -1.05,0 -1.8,-0.9 -1.8,-2.25 0,-1.42 0.75,-2.47 1.8,-2.47 1.12,0 1.8,0.9 1.8,2.32 0,1.43 -0.68,2.4 -1.8,2.4 z" />
            </g>
          </g>
          <g
             id="g3452">
            <g
               clip-path="url(#clipPath3456)"
               id="g3454">
              <path
                 inkscape:connector-curvature="0"
                 id="path3460"
                 style="fill:#FFFFFF;fill-opacity:1;fill-rule:nonzero;stroke:none"
                 d="m 145.75,795.16 0,0 c -0.75,0 -1.27,0.3 -1.8,0.9 l 0,-3.75 -0.9,0 0,9.08 0.9,0 0,-0.9 c 0.75,0.75 1.35,1.05 2.1,1.05 1.43,0 2.4,-1.2 2.4,-2.93 0,-2.02 -1.12,-3.45 -2.7,-3.45 z m 0.15,5.48 0,0 c -0.67,0 -1.42,-0.45 -1.95,-1.2 l 0,-2.33 c 0.53,-0.75 1.13,-1.12 1.8,-1.12 1.05,0 1.73,0.97 1.73,2.4 0,1.35 -0.68,2.25 -1.58,2.25 z" />
            </g>
          </g>
          <g
             id="g3462">
            <g
               clip-path="url(#clipPath3466)"
               id="g3464">
              <path
                 inkscape:connector-curvature="0"
                 id="path3470"
                 style="fill:#FFFFFF;fill-opacity:1;fill-rule:nonzero;stroke:none"
                 d="m 150.41,802.06 0,0 c -0.3,0 -0.6,0.23 -0.6,0.53 0,0.37 0.3,0.6 0.6,0.6 0.3,0 0.6,-0.23 0.6,-0.6 0,-0.3 -0.3,-0.53 -0.6,-0.53 z m -0.45,-0.67 0,0 0.9,0 0,-6.08 -0.9,0 0,6.08 z m 0,-6.08 0,0 z" />
            </g>
          </g>
          <g
             id="g3472">
            <g
               clip-path="url(#clipPath3476)"
               id="g3474">
              <path
                 inkscape:connector-curvature="0"
                 id="path3480"
                 style="fill:#FFFFFF;fill-opacity:1;fill-rule:nonzero;stroke:none"
                 d="m 154.31,795.16 0,0 c -1.05,0 -1.5,0.45 -1.5,1.43 l 0,0.52 0,3.53 -1.05,0 0,0.75 1.05,0 0,1.65 0.82,0 0,-1.65 1.58,0 0,-0.75 -1.58,0 0,-3.53 c 0,-0.3 0.08,-0.52 0.08,-0.67 0.07,-0.38 0.37,-0.53 0.9,-0.53 0.15,0 0.37,0.08 0.6,0.08 l 0,-0.68 c -0.45,-0.07 -0.6,-0.15 -0.9,-0.15 z" />
            </g>
          </g>
          <g
             id="g3482">
            <g
               clip-path="url(#clipPath3486)"
               id="g3484">
              <path
                 inkscape:connector-curvature="0"
                 id="path3490"
                 style="fill:#FFFFFF;fill-opacity:1;fill-rule:nonzero;stroke:none"
                 d="m 160.53,795.16 0,0 c -0.67,0 -0.97,0.38 -1.05,1.05 -0.22,-0.22 -0.3,-0.3 -0.45,-0.37 -0.52,-0.45 -1.05,-0.6 -1.57,-0.6 -0.83,0 -1.43,0.6 -1.43,1.42 0,1.13 1.13,1.95 3.45,2.48 l 0,0.22 c 0,1.05 -0.22,1.35 -0.9,1.35 -0.22,0 -0.45,-0.07 -0.75,-0.15 -0.37,-0.15 -0.6,-0.3 -1.12,-0.75 l -0.53,0.6 c 0.75,0.68 1.8,1.13 2.55,1.13 0.6,0 0.98,-0.15 1.28,-0.53 0.22,-0.3 0.3,-0.67 0.3,-1.5 l 0,-0.52 0,-2.1 0,-0.3 c 0,-0.08 0.07,-0.23 0.07,-0.3 0,-0.23 0.15,-0.38 0.45,-0.38 0.08,0 0.15,0.08 0.3,0.08 l 0.08,-0.6 c -0.23,-0.15 -0.45,-0.23 -0.68,-0.23 z m -1.05,3.23 0,0 c -1.72,-0.45 -2.47,-0.98 -2.47,-1.65 0,-0.38 0.22,-0.68 0.67,-0.68 0.45,0 1.2,0.38 1.8,1.05 l 0,1.28 z" />
            </g>
          </g>
          <g
             id="g3492">
            <g
               clip-path="url(#clipPath3496)"
               id="g3494">
              <path
                 inkscape:connector-curvature="0"
                 id="path3500"
                 style="fill:#FFFFFF;fill-opacity:1;fill-rule:nonzero;stroke:none"
                 d="m 166.16,795.31 0,0 0,0.98 c -0.68,-0.75 -1.5,-1.13 -2.33,-1.13 -0.52,0 -0.97,0.23 -1.27,0.53 -0.3,0.37 -0.38,0.82 -0.38,1.8 l 0,3.9 0.9,0 0,-3.6 c 0,-0.53 0,-0.75 0,-0.98 0.08,-0.52 0.45,-0.82 0.98,-0.82 0.6,0 1.42,0.52 2.1,1.27 l 0,4.13 0.9,0 0,-6.08 -0.9,0 z" />
            </g>
          </g>
          <g
             id="g3502">
            <g
               clip-path="url(#clipPath3506)"
               id="g3504">
              <path
                 inkscape:connector-curvature="0"
                 id="path3510"
                 style="fill:#FFFFFF;fill-opacity:1;fill-rule:nonzero;stroke:none"
                 d="m 172.76,795.31 0,0 -1.8,2.55 -1.8,-2.55 -1.05,0 2.32,3.23 -2.1,2.85 1.13,0 1.57,-2.18 1.58,2.18 0.97,0 -2.02,-2.85 2.33,-3.23 -1.13,0 z" />
            </g>
          </g>
          <g
             id="g3512">
            <g
               clip-path="url(#clipPath3516)"
               id="g3514">
              <path
                 inkscape:connector-curvature="0"
                 id="path3520"
                 style="fill:#FFFFFF;fill-opacity:1;fill-rule:nonzero;stroke:none"
                 d="m 130.83,783.46 0,0 c -0.98,0 -1.73,0.3 -2.33,0.82 -0.6,0.53 -0.82,1.28 -0.82,2.48 l 0,5.55 0.97,0 0,-5.55 c 0,-0.68 0,-0.98 0.23,-1.35 0.3,-0.68 1.05,-1.05 2.02,-1.05 0.68,0 1.2,0.15 1.73,0.52 0.6,0.45 0.82,0.98 0.82,2.18 l 0,5.25 0.9,0 0,-5.48 c 0,-2.1 -1.35,-3.37 -3.52,-3.37 z" />
            </g>
          </g>
          <g
             id="g3522">
            <g
               clip-path="url(#clipPath3526)"
               id="g3524">
              <path
                 inkscape:connector-curvature="0"
                 id="path3530"
                 style="fill:#FFFFFF;fill-opacity:1;fill-rule:nonzero;stroke:none"
                 d="m 140.28,783.68 0,0 0,3.6 c 0,0.45 0,0.53 0,0.83 0,0.6 -0.38,0.97 -0.9,0.97 -0.68,0 -1.43,-0.45 -2.18,-1.2 l 0,-4.2 -0.9,0 0,6 0.9,0 0,-0.9 c 0.3,0.3 0.45,0.38 0.6,0.53 0.6,0.37 1.13,0.6 1.73,0.6 0.52,0 0.97,-0.23 1.27,-0.6 0.3,-0.38 0.38,-0.75 0.38,-1.65 l 0,-3.98 -0.9,0 z" />
            </g>
          </g>
          <g
             id="g3532">
            <g
               clip-path="url(#clipPath3536)"
               id="g3534">
              <path
                 inkscape:connector-curvature="0"
                 id="path3540"
                 style="fill:#FFFFFF;fill-opacity:1;fill-rule:nonzero;stroke:none"
                 d="m 143.5,790.36 0,0 c -0.37,0 -0.6,0.3 -0.6,0.6 0,0.3 0.23,0.6 0.6,0.6 0.3,0 0.6,-0.3 0.6,-0.6 0,-0.3 -0.3,-0.6 -0.6,-0.6 z m -0.45,-0.68 0,0 0.9,0 0,-6 -0.9,0 0,6 z m 0,-6 0,0 z" />
            </g>
          </g>
          <g
             id="g3542">
            <g
               clip-path="url(#clipPath3546)"
               id="g3544">
              <path
                 inkscape:connector-curvature="0"
                 id="path3550"
                 style="fill:#FFFFFF;fill-opacity:1;fill-rule:nonzero;stroke:none"
                 d="m 148.23,783.68 0,0 -0.83,0 -2.47,6 1.05,0 1.87,-4.87 2.03,4.87 0.9,0 -2.55,-6 z" />
            </g>
          </g>
          <g
             id="g3552">
            <g
               clip-path="url(#clipPath3556)"
               id="g3554">
              <path
                 inkscape:connector-curvature="0"
                 id="path3560"
                 style="fill:#FFFFFF;fill-opacity:1;fill-rule:nonzero;stroke:none"
                 d="m 156.03,784.13 0,0 c -0.67,-0.45 -1.27,-0.67 -1.95,-0.67 -1.57,0 -2.62,1.27 -2.62,3.15 0,1.87 1.2,3.3 2.85,3.3 1.5,0 2.32,-1.05 2.32,-2.85 l 0,-0.3 -4.2,0 0,-0.23 c 0,-1.35 0.68,-2.17 1.73,-2.17 0.37,0 0.82,0.07 1.2,0.3 0.3,0.15 0.45,0.22 0.97,0.52 l 0.38,-0.52 c -0.23,-0.23 -0.3,-0.3 -0.68,-0.53 z m -1.8,4.95 0,0 c -0.82,0 -1.5,-0.6 -1.72,-1.65 l 3.15,0.08 c 0,0.97 -0.53,1.57 -1.43,1.57 z" />
            </g>
          </g>
          <g
             id="g3562">
            <g
               clip-path="url(#clipPath3566)"
               id="g3564">
              <path
                 inkscape:connector-curvature="0"
                 id="path3570"
                 style="fill:#FFFFFF;fill-opacity:1;fill-rule:nonzero;stroke:none"
                 d="m 161.13,788.86 0,0 c -0.22,0.07 -0.3,0.15 -0.45,0.15 -0.52,0 -1.2,-0.75 -1.65,-1.65 l 0,-3.68 -0.9,0 0,6 0.9,0 0,-1.2 c 0.08,0.15 0.08,0.23 0.15,0.23 0.15,0.3 0.45,0.6 0.68,0.75 0.3,0.22 0.6,0.37 0.97,0.37 0.15,0 0.3,-0.07 0.53,-0.15 l -0.23,-0.82 z" />
            </g>
          </g>
          <g
             id="g3572">
            <g
               clip-path="url(#clipPath3576)"
               id="g3574">
              <path
                 inkscape:connector-curvature="0"
                 id="path3580"
                 style="fill:#FFFFFF;fill-opacity:1;fill-rule:nonzero;stroke:none"
                 d="m 165.18,783.91 0,0 c -0.45,-0.3 -1.05,-0.45 -1.87,-0.45 -0.15,0 -0.3,0.07 -0.53,0.07 -0.3,0 -0.52,0.08 -0.97,0.23 l 0.15,0.67 c 0.15,-0.07 0.3,-0.07 0.37,-0.07 0.3,-0.08 0.68,-0.08 0.9,-0.08 1.13,0 1.88,0.38 1.88,0.98 0,0.3 -0.15,0.52 -0.38,0.67 -0.22,0.15 -0.37,0.3 -0.97,0.53 -0.75,0.37 -0.98,0.52 -1.2,0.75 -0.38,0.22 -0.53,0.6 -0.53,1.05 0,0.97 0.9,1.65 2.25,1.65 0.15,0 0.38,0 0.6,-0.08 0.3,0 0.45,0 0.9,-0.15 l -0.22,-0.67 c -0.53,0.07 -0.9,0.15 -1.2,0.15 -0.9,0 -1.43,-0.3 -1.43,-0.83 0,-0.3 0.23,-0.52 1.05,-0.9 l 0.38,-0.22 c 0.67,-0.3 0.97,-0.45 1.2,-0.75 0.3,-0.23 0.52,-0.68 0.52,-1.05 0,-0.6 -0.37,-1.13 -0.9,-1.5 z" />
            </g>
          </g>
          <g
             id="g3582">
            <g
               clip-path="url(#clipPath3586)"
               id="g3584">
              <path
                 inkscape:connector-curvature="0"
                 id="path3590"
                 style="fill:#FFFFFF;fill-opacity:1;fill-rule:nonzero;stroke:none"
                 d="m 167.88,790.36 0,0 c -0.3,0 -0.6,0.3 -0.6,0.6 0,0.3 0.3,0.6 0.6,0.6 0.3,0 0.6,-0.3 0.6,-0.6 0,-0.3 -0.3,-0.6 -0.6,-0.6 z m -0.45,-0.68 0,0 0.9,0 0,-6 -0.9,0 0,6 z m 0,-6 0,0 z" />
            </g>
          </g>
          <g
             id="g3592">
            <g
               clip-path="url(#clipPath3596)"
               id="g3594">
              <path
                 inkscape:connector-curvature="0"
                 id="path3600"
                 style="fill:#FFFFFF;fill-opacity:1;fill-rule:nonzero;stroke:none"
                 d="m 171.78,783.53 0,0 c -1.05,0 -1.57,0.45 -1.57,1.43 l 0,0.45 0,3.6 -0.98,0 0,0.67 0.98,0 0,1.66 0.9,0 0,-1.66 1.57,0 0,-0.67 -1.57,0 0,-3.6 c 0,-0.23 0,-0.53 0.07,-0.6 0.08,-0.38 0.3,-0.53 0.9,-0.53 0.15,0 0.3,0 0.6,0.08 l 0,-0.68 c -0.45,-0.15 -0.6,-0.15 -0.9,-0.15 z" />
            </g>
          </g>
          <g
             id="g3602">
            <g
               clip-path="url(#clipPath3606)"
               id="g3604">
              <path
                 inkscape:connector-curvature="0"
                 id="path3610"
                 style="fill:#FFFFFF;fill-opacity:1;fill-rule:nonzero;stroke:none"
                 d="m 177.94,783.53 0,0 c -0.6,0 -0.9,0.38 -0.98,1.05 -0.22,-0.22 -0.3,-0.3 -0.45,-0.45 -0.52,-0.37 -1.05,-0.6 -1.57,-0.6 -0.83,0 -1.43,0.6 -1.43,1.43 0,1.2 1.13,2.02 3.38,2.47 l 0,0.3 c 0,0.98 -0.15,1.35 -0.83,1.35 -0.22,0 -0.45,-0.07 -0.75,-0.22 -0.37,-0.15 -0.6,-0.3 -1.12,-0.68 l -0.53,0.53 c 0.75,0.67 1.8,1.2 2.55,1.2 0.53,0 0.98,-0.23 1.28,-0.53 0.22,-0.37 0.3,-0.75 0.3,-1.57 l 0,-0.53 0,-2.02 0,-0.38 c 0,-0.07 0,-0.15 0.07,-0.22 0,-0.3 0.15,-0.38 0.38,-0.38 0.15,0 0.22,0 0.37,0.08 l 0.08,-0.68 c -0.23,-0.07 -0.45,-0.15 -0.75,-0.15 z m -1.05,3.15 0,0 c -1.65,-0.45 -2.4,-0.97 -2.4,-1.65 0,-0.37 0.22,-0.67 0.67,-0.67 0.45,0 1.2,0.45 1.73,1.12 l 0,1.2 z" />
            </g>
          </g>
          <g
             id="g3612">
            <g
               clip-path="url(#clipPath3616)"
               id="g3614">
              <path
                 inkscape:connector-curvature="0"
                 id="path3620"
                 style="fill:#FFFFFF;fill-opacity:1;fill-rule:nonzero;stroke:none"
                 d="m 180.11,790.36 0,0 c -0.3,0 -0.6,0.3 -0.6,0.6 0,0.3 0.3,0.6 0.6,0.6 0.38,0 0.6,-0.3 0.6,-0.6 0,-0.3 -0.22,-0.6 -0.6,-0.6 z m -0.45,-0.68 0,0 0.9,0 0,-6 -0.9,0 0,6 z m 0,-6 0,0 z" />
            </g>
          </g>
          <g
             id="g3622">
            <g
               clip-path="url(#clipPath3626)"
               id="g3624">
              <path
                 inkscape:connector-curvature="0"
                 id="path3630"
                 style="fill:#FFFFFF;fill-opacity:1;fill-rule:nonzero;stroke:none"
                 d="m 185.44,788.86 0,0 c -0.23,0.07 -0.3,0.15 -0.45,0.15 -0.53,0 -1.28,-0.75 -1.65,-1.65 l 0,-3.68 -0.9,0 0,6 0.9,0 0,-1.2 c 0,0.15 0.07,0.23 0.07,0.23 0.15,0.3 0.45,0.6 0.75,0.75 0.3,0.22 0.6,0.37 0.9,0.37 0.23,0 0.3,-0.07 0.6,-0.15 l -0.22,-0.82 z" />
            </g>
          </g>
          <g
             id="g3632">
            <g
               clip-path="url(#clipPath3636)"
               id="g3634">
              <path
                 inkscape:connector-curvature="0"
                 id="path3640"
                 style="fill:#FFFFFF;fill-opacity:1;fill-rule:nonzero;stroke:none"
                 d="m 190.84,784.13 0,0 c -0.75,-0.45 -1.35,-0.67 -2.03,-0.67 -1.57,0 -2.55,1.27 -2.55,3.15 0,1.87 1.2,3.3 2.85,3.3 1.43,0 2.33,-1.05 2.33,-2.85 l 0,-0.3 -4.2,0 0,-0.23 c 0,-1.35 0.6,-2.17 1.72,-2.17 0.38,0 0.83,0.07 1.2,0.3 0.3,0.15 0.45,0.22 0.9,0.52 l 0.45,-0.52 c -0.22,-0.23 -0.37,-0.3 -0.67,-0.53 z m -1.88,4.95 0,0 c -0.82,0 -1.5,-0.6 -1.65,-1.65 l 3.15,0.08 c 0,0.97 -0.6,1.57 -1.5,1.57 z" />
            </g>
          </g>
          <g
             id="g3642">
            <g
               clip-path="url(#clipPath3646)"
               id="g3644">
              <path
                 inkscape:connector-curvature="0"
                 id="path3650"
                 style="fill:#FFFFFF;fill-opacity:1;fill-rule:nonzero;stroke:none"
                 d="m 195.79,783.91 0,0 c -0.53,-0.3 -1.05,-0.45 -1.88,-0.45 -0.22,0 -0.37,0.07 -0.52,0.07 -0.38,0 -0.53,0.08 -0.98,0.23 l 0.15,0.67 c 0.15,-0.07 0.3,-0.07 0.38,-0.07 0.3,-0.08 0.6,-0.08 0.9,-0.08 1.12,0 1.8,0.38 1.8,0.98 0,0.3 -0.08,0.52 -0.3,0.67 -0.23,0.15 -0.38,0.3 -0.98,0.53 -0.75,0.37 -0.97,0.52 -1.27,0.75 -0.3,0.22 -0.53,0.6 -0.53,1.05 0,0.97 0.9,1.65 2.33,1.65 0.15,0 0.37,0 0.52,-0.08 0.38,0 0.53,0 0.9,-0.15 l -0.15,-0.67 c -0.52,0.07 -0.9,0.15 -1.27,0.15 -0.83,0 -1.35,-0.3 -1.35,-0.83 0,-0.3 0.22,-0.52 0.97,-0.9 l 0.45,-0.22 c 0.68,-0.3 0.98,-0.45 1.2,-0.75 0.3,-0.23 0.45,-0.68 0.45,-1.05 0,-0.6 -0.3,-1.13 -0.82,-1.5 z" />
            </g>
          </g>
          <g
             id="g3652">
            <g
               clip-path="url(#clipPath3656)"
               id="g3654">
              <path
                 inkscape:connector-curvature="0"
                 id="path3660"
                 style="fill:#FFFFFF;fill-opacity:1;fill-rule:nonzero;stroke:none"
                 d="m 133.23,771.91 0,0 c -0.45,-0.08 -0.98,-0.15 -1.35,-0.15 -2.78,0 -4.58,1.8 -4.58,4.42 0,2.7 2.03,4.65 4.88,4.65 0.82,0 1.42,-0.15 2.4,-0.52 l -0.3,-0.75 c -0.23,0.07 -0.38,0.15 -0.45,0.15 -0.53,0.15 -1.05,0.22 -1.65,0.22 -2.33,0 -3.83,-1.5 -3.83,-3.67 0,-2.18 1.43,-3.68 3.6,-3.68 0.53,0 1.2,0.15 1.73,0.3 l 0,3.23 1.05,0 0,-3.68 c -0.75,-0.3 -1.05,-0.37 -1.5,-0.52 z" />
            </g>
          </g>
          <g
             id="g3662">
            <g
               clip-path="url(#clipPath3666)"
               id="g3664">
              <path
                 inkscape:connector-curvature="0"
                 id="path3670"
                 style="fill:#FFFFFF;fill-opacity:1;fill-rule:nonzero;stroke:none"
                 d="m 140.65,772.51 0,0 c -0.75,-0.45 -1.35,-0.68 -2.02,-0.68 -1.58,0 -2.63,1.2 -2.63,3.08 0,1.95 1.28,3.3 2.93,3.3 1.42,0 2.25,-1.05 2.25,-2.85 l 0,-0.3 -4.13,0 0,-0.15 c 0,-1.43 0.6,-2.25 1.73,-2.25 0.37,0 0.82,0.15 1.2,0.3 0.3,0.15 0.37,0.22 0.9,0.6 l 0.45,-0.6 c -0.3,-0.23 -0.38,-0.3 -0.68,-0.45 z m -1.87,4.95 0,0 c -0.83,0 -1.5,-0.68 -1.65,-1.73 l 3.15,0.08 c -0.08,1.05 -0.6,1.65 -1.5,1.65 z" />
            </g>
          </g>
          <g
             id="g3672">
            <g
               clip-path="url(#clipPath3676)"
               id="g3674">
              <path
                 inkscape:connector-curvature="0"
                 id="path3680"
                 style="fill:#FFFFFF;fill-opacity:1;fill-rule:nonzero;stroke:none"
                 d="m 146.65,771.98 0,0 0,3.68 c 0,0.45 0,0.52 0,0.75 0,0.67 -0.37,0.97 -0.9,0.97 -0.67,0 -1.42,-0.37 -2.17,-1.2 l 0,-4.2 -0.9,0 0,6.08 0.9,0 0,-0.9 c 0.3,0.22 0.45,0.3 0.6,0.45 0.6,0.37 1.12,0.6 1.72,0.6 0.53,0 0.98,-0.15 1.28,-0.53 0.3,-0.37 0.37,-0.75 0.37,-1.72 l 0,-3.98 -0.9,0 z" />
            </g>
          </g>
          <g
             id="g3682">
            <g
               clip-path="url(#clipPath3686)"
               id="g3684">
              <path
                 inkscape:connector-curvature="0"
                 id="path3690"
                 style="fill:#FFFFFF;fill-opacity:1;fill-rule:nonzero;stroke:none"
                 d="m 153.63,772.51 0,0 c -0.75,-0.45 -1.35,-0.68 -2.02,-0.68 -1.58,0 -2.55,1.2 -2.55,3.08 0,1.95 1.2,3.3 2.85,3.3 1.5,0 2.32,-1.05 2.32,-2.85 l 0,-0.3 -4.2,0 0,-0.15 c 0,-1.43 0.68,-2.25 1.73,-2.25 0.37,0 0.82,0.15 1.2,0.3 0.3,0.15 0.45,0.22 0.9,0.6 l 0.45,-0.6 c -0.23,-0.23 -0.38,-0.3 -0.68,-0.45 z m -1.8,4.95 0,0 c -0.9,0 -1.57,-0.68 -1.72,-1.73 l 3.15,0.08 c 0,1.05 -0.6,1.65 -1.43,1.65 z m 0.6,1.27 0,0 -2.02,1.28 0.67,0.82 1.88,-1.5 -0.53,-0.6 z" />
            </g>
          </g>
          <g
             id="g3692">
            <g
               clip-path="url(#clipPath3696)"
               id="g3694">
              <path
                 inkscape:connector-curvature="0"
                 id="path3700"
                 style="fill:#FFFFFF;fill-opacity:1;fill-rule:nonzero;stroke:none"
                 d="m 158.13,771.98 0,0 -0.82,0 -2.48,6.08 1.05,0 1.95,-4.88 1.95,4.88 0.98,0 -2.63,-6.08 z" />
            </g>
          </g>
          <g
             id="g3702">
            <g
               clip-path="url(#clipPath3706)"
               id="g3704">
              <path
                 inkscape:connector-curvature="0"
                 id="path3710"
                 style="fill:#FFFFFF;fill-opacity:1;fill-rule:nonzero;stroke:none"
                 d="m 166.01,772.51 0,0 c -0.75,-0.45 -1.35,-0.68 -2.03,-0.68 -1.57,0 -2.62,1.2 -2.62,3.08 0,1.95 1.2,3.3 2.85,3.3 1.5,0 2.32,-1.05 2.32,-2.85 l 0,-0.3 -4.12,0 0,-0.15 c 0,-1.43 0.6,-2.25 1.72,-2.25 0.38,0 0.83,0.15 1.2,0.3 0.23,0.15 0.38,0.22 0.9,0.6 l 0.45,-0.6 c -0.3,-0.23 -0.37,-0.3 -0.67,-0.45 z m -1.88,4.95 0,0 c -0.82,0 -1.5,-0.68 -1.65,-1.73 l 3.15,0.08 c -0.07,1.05 -0.6,1.65 -1.5,1.65 z" />
            </g>
          </g>
        </g>
      </g>
    </g>
  </g>
</svg>
